<svg width="900" height="1100" viewBox="0 0 900 1100" fill="none" xmlns="http://www.w3.org/2000/svg" role="img" aria-labelledby="title desc">
  <title id="title">Domótica energética para residencias premium</title>
  <desc id="desc">Ilustración de un edificio inteligente con control de energía y sensores.</desc>
  <defs>
    <linearGradient id="bg-domotica" x1="0%" y1="0%" x2="100%" y2="100%">
      <stop offset="0%" stop-color="#0b1120"/>
      <stop offset="100%" stop-color="#1f2937"/>
    </linearGradient>
    <linearGradient id="signal" x1="0%" y1="0%" x2="100%" y2="0%">
      <stop offset="0%" stop-color="#22d3ee"/>
      <stop offset="100%" stop-color="#a855f7"/>
    </linearGradient>
  </defs>
  <rect width="900" height="1100" rx="64" fill="url(#bg-domotica)"/>
  <rect x="200" y="320" width="500" height="520" rx="36" fill="#0b1120" opacity="0.75"/>
  <rect x="240" y="360" width="420" height="440" rx="28" fill="#111c2d" stroke="#22d3ee" stroke-width="3"/>
  <rect x="280" y="400" width="340" height="360" rx="24" fill="#0f172a"/>
  <rect x="280" y="400" width="340" height="90" rx="24" fill="#111827" stroke="#22d3ee" stroke-width="2"/>
  <rect x="280" y="510" width="340" height="90" rx="24" fill="#111827" stroke="#22d3ee" stroke-width="2"/>
  <rect x="280" y="620" width="340" height="90" rx="24" fill="#111827" stroke="#22d3ee" stroke-width="2"/>
  <circle cx="450" cy="470" r="30" fill="#0b1120" stroke="#a855f7" stroke-width="4"/>
  <circle cx="450" cy="580" r="30" fill="#0b1120" stroke="#a855f7" stroke-width="4"/>
  <circle cx="450" cy="690" r="30" fill="#0b1120" stroke="#a855f7" stroke-width="4"/>
  <path d="M450 470L480 500H420L450 470Z" fill="#a855f7"/>
  <path d="M450 580L420 610H480L450 580Z" fill="#a855f7"/>
  <path d="M450 690L480 720H420L450 690Z" fill="#a855f7"/>
  <path d="M580 420C620 420 640 380 640 350C640 320 620 280 580 280" stroke="url(#signal)" stroke-width="8" stroke-linecap="round" stroke-dasharray="12 16"/>
  <path d="M580 540C620 540 640 500 640 470C640 440 620 400 580 400" stroke="url(#signal)" stroke-width="8" stroke-linecap="round" stroke-dasharray="12 16"/>
  <path d="M580 650C620 650 640 610 640 580C640 550 620 510 580 510" stroke="url(#signal)" stroke-width="8" stroke-linecap="round" stroke-dasharray="12 16"/>
  <path d="M580 760C620 760 640 720 640 690C640 660 620 620 580 620" stroke="url(#signal)" stroke-width="8" stroke-linecap="round" stroke-dasharray="12 16"/>
  <rect x="320" y="900" width="260" height="12" rx="6" fill="#22d3ee" opacity="0.3"/>
  <rect x="300" y="940" width="300" height="8" rx="4" fill="#a855f7" opacity="0.3"/>
</svg>
